<mxfile host="app.diagrams.net" agent="Mozilla/5.0 (Windows NT 10.0; Win64; x64) AppleWebKit/537.36 (KHTML, like Gecko) Chrome/133.0.0.0 Safari/537.36 OPR/118.0.0.0" version="27.0.5">
  <diagram name="P치gina-1" id="-Dlo7fudLg56WxaFM4cJ">
    <mxGraphModel dx="1240" dy="580" grid="1" gridSize="10" guides="1" tooltips="1" connect="1" arrows="1" fold="1" page="1" pageScale="1" pageWidth="827" pageHeight="1169" math="0" shadow="0">
      <root>
        <mxCell id="0" />
        <mxCell id="1" parent="0" />
        <mxCell id="2" value="Inicio" style="whiteSpace=wrap;strokeWidth=2;" parent="1" vertex="1">
          <mxGeometry x="577" y="8" width="99" height="54" as="geometry" />
        </mxCell>
        <mxCell id="3" value="Tipo de Curso" style="rhombus;strokeWidth=2;whiteSpace=wrap;" parent="1" vertex="1">
          <mxGeometry x="551" y="112" width="152" height="152" as="geometry" />
        </mxCell>
        <mxCell id="4" value="Acceso Sin Coste" style="whiteSpace=wrap;strokeWidth=2;" parent="1" vertex="1">
          <mxGeometry x="412" y="336" width="179" height="54" as="geometry" />
        </mxCell>
        <mxCell id="5" value="Acceso de Estudiantes" style="whiteSpace=wrap;strokeWidth=2;" parent="1" vertex="1">
          <mxGeometry x="672" y="336" width="219" height="54" as="geometry" />
        </mxCell>
        <mxCell id="6" value="Gestionar Informaci칩n del Curso" style="whiteSpace=wrap;strokeWidth=2;" parent="1" vertex="1">
          <mxGeometry x="33" y="440" width="260" height="78" as="geometry" />
        </mxCell>
        <mxCell id="7" value="Nombre del Curso" style="whiteSpace=wrap;strokeWidth=2;" parent="1" vertex="1">
          <mxGeometry x="8" y="568" width="188" height="54" as="geometry" />
        </mxCell>
        <mxCell id="8" value="Profesor" style="whiteSpace=wrap;strokeWidth=2;" parent="1" vertex="1">
          <mxGeometry x="309" y="568" width="119" height="54" as="geometry" />
        </mxCell>
        <mxCell id="9" value="Duraci칩n" style="whiteSpace=wrap;strokeWidth=2;" parent="1" vertex="1">
          <mxGeometry x="541" y="568" width="123" height="54" as="geometry" />
        </mxCell>
        <mxCell id="10" value="Ingresar Precio" style="whiteSpace=wrap;strokeWidth=2;" parent="1" vertex="1">
          <mxGeometry x="800" y="452" width="166" height="54" as="geometry" />
        </mxCell>
        <mxCell id="11" value="Calcular Precio" style="whiteSpace=wrap;strokeWidth=2;" parent="1" vertex="1">
          <mxGeometry x="799" y="568" width="168" height="54" as="geometry" />
        </mxCell>
        <mxCell id="12" value="Gestionar Informaci칩n del Curso" style="whiteSpace=wrap;strokeWidth=2;" parent="1" vertex="1">
          <mxGeometry x="343" y="440" width="260" height="78" as="geometry" />
        </mxCell>
        <mxCell id="13" value="Finalizar" style="whiteSpace=wrap;strokeWidth=2;" parent="1" vertex="1">
          <mxGeometry x="803" y="672" width="122" height="54" as="geometry" />
        </mxCell>
        <mxCell id="14" value="" style="curved=1;startArrow=none;endArrow=block;exitX=0.5;exitY=1;entryX=0.5;entryY=0;" parent="1" source="2" target="3" edge="1">
          <mxGeometry relative="1" as="geometry">
            <Array as="points" />
          </mxGeometry>
        </mxCell>
        <mxCell id="15" value="Gratuito" style="curved=1;startArrow=none;endArrow=block;exitX=0;exitY=0.95;entryX=0.5;entryY=0;" parent="1" source="3" target="4" edge="1">
          <mxGeometry relative="1" as="geometry">
            <Array as="points">
              <mxPoint x="502" y="300" />
            </Array>
          </mxGeometry>
        </mxCell>
        <mxCell id="16" value="De Pago" style="curved=1;startArrow=none;endArrow=block;exitX=1;exitY=0.86;entryX=0.5;entryY=0;" parent="1" source="3" target="5" edge="1">
          <mxGeometry relative="1" as="geometry">
            <Array as="points">
              <mxPoint x="782" y="300" />
            </Array>
          </mxGeometry>
        </mxCell>
        <mxCell id="17" value="" style="curved=1;startArrow=none;endArrow=block;exitX=0;exitY=0.75;entryX=0.5;entryY=0;" parent="1" source="4" target="6" edge="1">
          <mxGeometry relative="1" as="geometry">
            <Array as="points">
              <mxPoint x="163" y="415" />
            </Array>
          </mxGeometry>
        </mxCell>
        <mxCell id="18" value="" style="curved=1;startArrow=none;endArrow=block;exitX=0.33;exitY=1;entryX=0.47;entryY=0;" parent="1" source="6" target="7" edge="1">
          <mxGeometry relative="1" as="geometry">
            <Array as="points">
              <mxPoint x="92" y="543" />
            </Array>
          </mxGeometry>
        </mxCell>
        <mxCell id="19" value="" style="curved=1;startArrow=none;endArrow=block;exitX=0.62;exitY=1;entryX=0;entryY=0.13;" parent="1" source="6" target="8" edge="1">
          <mxGeometry relative="1" as="geometry">
            <Array as="points">
              <mxPoint x="213" y="543" />
            </Array>
          </mxGeometry>
        </mxCell>
        <mxCell id="20" value="" style="curved=1;startArrow=none;endArrow=block;exitX=1;exitY=0.79;entryX=0.18;entryY=0;" parent="1" source="6" target="9" edge="1">
          <mxGeometry relative="1" as="geometry">
            <Array as="points">
              <mxPoint x="527" y="543" />
            </Array>
          </mxGeometry>
        </mxCell>
        <mxCell id="21" value="" style="curved=1;startArrow=none;endArrow=block;exitX=0.74;exitY=1;entryX=0.5;entryY=0;" parent="1" source="5" target="10" edge="1">
          <mxGeometry relative="1" as="geometry">
            <Array as="points">
              <mxPoint x="883" y="415" />
            </Array>
          </mxGeometry>
        </mxCell>
        <mxCell id="22" value="" style="curved=1;startArrow=none;endArrow=block;exitX=0.5;exitY=1;entryX=0.5;entryY=0;" parent="1" source="10" target="11" edge="1">
          <mxGeometry relative="1" as="geometry">
            <Array as="points" />
          </mxGeometry>
        </mxCell>
        <mxCell id="23" value="" style="curved=1;startArrow=none;endArrow=block;exitX=0;exitY=0.84;entryX=0.5;entryY=0;" parent="1" source="5" target="12" edge="1">
          <mxGeometry relative="1" as="geometry">
            <Array as="points">
              <mxPoint x="473" y="415" />
            </Array>
          </mxGeometry>
        </mxCell>
        <mxCell id="24" value="" style="curved=1;startArrow=none;endArrow=block;exitX=0;exitY=0.88;entryX=0.75;entryY=0;" parent="1" source="12" target="7" edge="1">
          <mxGeometry relative="1" as="geometry">
            <Array as="points">
              <mxPoint x="193" y="543" />
            </Array>
          </mxGeometry>
        </mxCell>
        <mxCell id="25" value="" style="curved=1;startArrow=none;endArrow=block;exitX=0.58;exitY=1;entryX=1;entryY=0.09;" parent="1" source="12" target="8" edge="1">
          <mxGeometry relative="1" as="geometry">
            <Array as="points">
              <mxPoint x="507" y="543" />
            </Array>
          </mxGeometry>
        </mxCell>
        <mxCell id="26" value="" style="curved=1;startArrow=none;endArrow=block;exitX=0.89;exitY=1;entryX=0.66;entryY=0;" parent="1" source="12" target="9" edge="1">
          <mxGeometry relative="1" as="geometry">
            <Array as="points">
              <mxPoint x="641" y="543" />
            </Array>
          </mxGeometry>
        </mxCell>
        <mxCell id="27" value="" style="curved=1;startArrow=none;endArrow=block;exitX=1;exitY=0.94;entryX=0;entryY=0.14;" parent="1" source="4" target="13" edge="1">
          <mxGeometry relative="1" as="geometry">
            <Array as="points">
              <mxPoint x="699" y="415" />
              <mxPoint x="699" y="647" />
            </Array>
          </mxGeometry>
        </mxCell>
        <mxCell id="28" value="" style="curved=1;startArrow=none;endArrow=block;exitX=0.5;exitY=1;entryX=0.58;entryY=0;" parent="1" source="11" target="13" edge="1">
          <mxGeometry relative="1" as="geometry">
            <Array as="points">
              <mxPoint x="883" y="647" />
            </Array>
          </mxGeometry>
        </mxCell>
      </root>
    </mxGraphModel>
  </diagram>
</mxfile>
